<svg width="105" height="111" viewBox="0 0 105 111" fill="none" xmlns="http://www.w3.org/2000/svg">
<rect x="21" y="68.6069" width="84" height="14" fill="white"/>
<path d="M2 68.4756H16V82.4756H2V68.4756Z" fill="white"/>
<path d="M9.14285 63.2143C9.14285 38.8818 37.7143 32.3054 9.14285 6" stroke="white" stroke-width="14"/>
<path d="M1.479 104V92.1H6.63C7.69533 92.1 8.61333 92.2757 9.384 92.627C10.1547 92.967 10.7497 93.46 11.169 94.106C11.5883 94.752 11.798 95.5227 11.798 96.418C11.798 97.302 11.5883 98.067 11.169 98.713C10.7497 99.359 10.1547 99.8577 9.384 100.209C8.61333 100.549 7.69533 100.719 6.63 100.719H3.009L4.233 99.478V104H1.479ZM4.233 99.784L3.009 98.475H6.477C7.327 98.475 7.96167 98.2937 8.381 97.931C8.80033 97.5683 9.01 97.064 9.01 96.418C9.01 95.7607 8.80033 95.2507 8.381 94.888C7.96167 94.5253 7.327 94.344 6.477 94.344H3.009L4.233 93.035V99.784ZM11.6741 104L16.9781 92.1H19.6981L25.0191 104H22.1291L17.7771 93.494H18.8651L14.4961 104H11.6741ZM14.3261 101.45L15.0571 99.359H21.1771L21.9251 101.45H14.3261ZM32.0581 104.204C31.1401 104.204 30.2845 104.057 29.4911 103.762C28.7091 103.456 28.0291 103.025 27.4511 102.47C26.8731 101.915 26.4198 101.263 26.0911 100.515C25.7738 99.767 25.6151 98.9453 25.6151 98.05C25.6151 97.1547 25.7738 96.333 26.0911 95.585C26.4198 94.837 26.8731 94.1853 27.4511 93.63C28.0405 93.0747 28.7261 92.6497 29.5081 92.355C30.2901 92.049 31.1458 91.896 32.0751 91.896C33.1065 91.896 34.0358 92.0773 34.8631 92.44C35.7018 92.7913 36.4045 93.3127 36.9711 94.004L35.2031 95.636C34.7951 95.1713 34.3418 94.8257 33.8431 94.599C33.3445 94.361 32.8005 94.242 32.2111 94.242C31.6558 94.242 31.1458 94.3327 30.6811 94.514C30.2165 94.6953 29.8141 94.956 29.4741 95.296C29.1341 95.636 28.8678 96.0383 28.6751 96.503C28.4938 96.9677 28.4031 97.4833 28.4031 98.05C28.4031 98.6167 28.4938 99.1323 28.6751 99.597C28.8678 100.062 29.1341 100.464 29.4741 100.804C29.8141 101.144 30.2165 101.405 30.6811 101.586C31.1458 101.767 31.6558 101.858 32.2111 101.858C32.8005 101.858 33.3445 101.745 33.8431 101.518C34.3418 101.28 34.7951 100.923 35.2031 100.447L36.9711 102.079C36.4045 102.77 35.7018 103.297 34.8631 103.66C34.0358 104.023 33.1008 104.204 32.0581 104.204ZM46.4671 104L42.7611 98.271L44.9881 96.928L49.5951 104H46.4671ZM38.7321 104V92.1H41.4691V104H38.7321ZM40.6701 99.206V96.911H44.8181V99.206H40.6701ZM45.2431 98.356L42.7101 98.05L46.5691 92.1H49.4761L45.2431 98.356ZM51.4925 101.756C52.1498 101.949 52.6995 102.005 53.1415 101.926C53.5948 101.835 53.9971 101.518 54.3485 100.974L54.9265 100.107L55.1815 99.818L59.1255 92.1H61.8285L56.7625 101.518C56.3091 102.368 55.7708 103.02 55.1475 103.473C54.5355 103.926 53.8611 104.181 53.1245 104.238C52.3878 104.306 51.6228 104.176 50.8295 103.847L51.4925 101.756ZM55.1305 102.113L49.7585 92.1H52.6995L56.6435 100.09L55.1305 102.113ZM63.1372 104V92.1H65.4152L70.4812 100.498H69.2742L74.2552 92.1H76.5332L76.5502 104H73.9662L73.9492 96.061H74.4422L70.4472 102.742H69.2232L65.1432 96.061H65.7212V104H63.1372ZM78.1633 104L83.4673 92.1H86.1873L91.5083 104H88.6183L84.2663 93.494H85.3543L80.9853 104H78.1633ZM80.8153 101.45L81.5463 99.359H87.6663L88.4143 101.45H80.8153ZM93.0864 104V92.1H98.2374C99.3028 92.1 100.221 92.2757 100.991 92.627C101.762 92.967 102.357 93.46 102.776 94.106C103.196 94.752 103.405 95.5227 103.405 96.418C103.405 97.302 103.196 98.067 102.776 98.713C102.357 99.359 101.762 99.8577 100.991 100.209C100.221 100.549 99.3028 100.719 98.2374 100.719H94.6164L95.8404 99.478V104H93.0864ZM95.8404 99.784L94.6164 98.475H98.0844C98.9344 98.475 99.5691 98.2937 99.9884 97.931C100.408 97.5683 100.617 97.064 100.617 96.418C100.617 95.7607 100.408 95.2507 99.9884 94.888C99.5691 94.5253 98.9344 94.344 98.0844 94.344H94.6164L95.8404 93.035V99.784Z" fill="white"/>
</svg>
